<svg width="40" height="40" viewBox="0 0 40 40" fill="none" xmlns="http://www.w3.org/2000/svg">
<path d="M24.705 27.9936L32.6913 35.9801C32.6913 35.9801 32.0857 36.5857 31.8164 36.8544C25.0218 43.6497 15.0627 38.2883 8.3875 31.6129C1.70946 24.9352 -3.64898 14.9788 3.1461 8.18359C3.41536 7.91431 4.02096 7.3092 4.02096 7.3092L12.0068 15.2952C12.0068 15.2952 10.9278 16.3741 10.8313 16.4707C8.38611 18.9159 12.493 24.0885 14.2027 25.7977C15.9124 27.5075 21.0848 31.6144 23.5295 29.1697C23.6265 29.0726 24.705 27.9936 24.705 27.9936Z" fill="#7C002E"/>
<path d="M3.52546 7.56426C3.05023 7.08947 3.05023 6.31881 3.52546 5.84358L6.0696 3.29944C6.983 2.38652 8.46339 2.38652 9.37674 3.29944L16.0939 10.0166C17.0072 10.93 17.0072 12.4105 16.0939 13.3238L13.5498 15.868C13.0745 16.3433 12.3043 16.3433 11.8291 15.868L3.52546 7.56426Z" fill="#93063A"/>
<path d="M24.1318 28.1711C23.6566 27.6963 23.6566 26.9256 24.1318 26.4504L26.676 23.9062C27.5893 22.9933 29.0697 22.9933 29.9831 23.9062L36.7002 30.6234C37.6135 31.5368 37.6135 33.0173 36.7002 33.9306L34.1561 36.4748C33.6808 36.9501 32.9106 36.9501 32.4354 36.4748L24.1318 28.1711Z" fill="#93063A"/>
<path d="M30.9071 18.5341C30.907 18.5341 30.9069 18.5341 30.9069 18.5341C30.4884 18.534 30.1493 18.1947 30.1493 17.7762C30.1497 15.6594 29.3253 13.6691 27.828 12.1718C26.3311 10.6749 24.3407 9.85042 22.2237 9.85042C21.8052 9.85042 21.4659 9.51118 21.4659 9.09269C21.4659 8.6742 21.8052 8.33496 22.2237 8.33496C24.7456 8.33496 27.1164 9.31701 28.8996 11.1002C30.6832 12.8838 31.6653 15.2548 31.6648 17.7764C31.6647 18.1949 31.3254 18.5341 30.9071 18.5341Z" fill="#7C002E"/>
<path d="M35.0645 18.5344C34.646 18.5344 34.3068 18.1952 34.3068 17.7767C34.3068 14.5492 33.0498 11.5148 30.7674 9.23239C28.4853 6.95017 25.4511 5.69332 22.2237 5.69332C21.8052 5.69332 21.4659 5.35408 21.4659 4.93559C21.4659 4.5171 21.8052 4.17786 22.2237 4.17786C25.8559 4.17786 29.2707 5.59236 31.839 8.16078C34.4076 10.7294 35.8222 14.1444 35.8222 17.7767C35.8222 18.1952 35.4829 18.5344 35.0645 18.5344Z" fill="#7C002E"/>
<path d="M39.2423 18.5344C38.8238 18.5345 38.4845 18.1952 38.4845 17.7767C38.4842 13.4331 36.7926 9.34956 33.7214 6.27827C30.6504 3.20728 26.5671 1.51581 22.2236 1.51546C21.8051 1.51541 21.4658 1.17617 21.4659 0.757633C21.4659 0.339193 21.8052 0 22.2237 0C22.2237 0 22.2237 0 22.2238 0C26.972 0.000394754 31.4358 1.84947 34.7931 5.20666C38.1505 8.56415 39.9997 13.0282 40 17.7766C39.9999 18.1951 39.6608 18.5344 39.2423 18.5344Z" fill="#7C002E"/>
</svg>
