<svg width="62" height="40" viewBox="0 0 62 40" fill="none" xmlns="http://www.w3.org/2000/svg">
<g clip-path="url(#clip0_10_335)">
<path d="M16.5732 26.8966C18.4289 26.887 20.2826 26.7539 22.1252 26.5271H10.6869C12.6381 26.8163 14.6312 26.9068 16.5732 26.8966Z" fill="#5C0827"/>
<path d="M60.1441 0H1.82907C0.823117 0 0 0.82817 0 1.84044V17.7816C0.780566 18.4283 4.16467 20.3374 3.44297 12.4692V6.59162C3.44297 5.57942 4.26609 4.75118 5.27204 4.75118H14.2022C15.2082 4.75118 16.0313 5.57942 16.0313 6.59162V14.9278C16.0313 15.94 15.2082 16.7682 14.2022 16.7682H5.27204C4.4655 16.7682 3.78452 16.2324 3.543 15.4996C2.9527 16.5424 1.79116 17.5207 0.353103 17.7565C0.242347 17.7747 0.123013 17.7808 0 17.7816L6.20186e-05 17.8174V20.998C0.504181 21.5707 1.03358 22.1198 1.60407 22.6267C2.18312 23.1412 2.79907 23.601 3.44303 24.0132V23.0474H28.6197V25.3259C29.7745 25.0521 30.9222 24.7488 32.0626 24.4188V23.0473H36.3661C36.455 23.0165 36.5444 22.9869 36.6332 22.9558C39.2518 22.0392 41.8085 20.9523 44.2551 19.6372C48.8396 17.1727 53.0143 13.9407 56.5127 10.0696C58.5742 7.78844 60.3891 5.29729 61.9733 2.66376V1.84038C61.9732 0.828172 61.1501 0 60.1441 0Z" fill="#5C0827"/>
<path d="M56.5395 10.085C53.041 13.9562 48.8663 17.1882 44.2818 19.6526C41.8353 20.9678 39.2785 22.0547 36.66 22.9712C36.5711 23.0024 36.4817 23.0319 36.3929 23.0627H47.7978V26.5271H32.0894V24.4342C30.949 24.7643 29.8013 25.0675 28.6464 25.3414V26.5271H22.1252C20.2826 26.7538 18.4289 26.887 16.5732 26.8967C14.6313 26.9068 12.6382 26.8163 10.6869 26.5271H3.46977V24.0286C2.82587 23.6165 2.20985 23.1567 1.63079 22.6421C1.06031 22.1352 0.530914 21.5862 0.0267944 21.0134V23.5326V38.1595C0.0267944 38.2861 0.0396872 38.4097 0.0641374 38.5293C0.210966 39.2464 0.775734 39.8147 1.48841 39.9624C1.60723 39.987 1.73012 40 1.85586 40H60.1709C60.2967 40 60.4196 39.987 60.5384 39.9624C60.9484 39.8774 61.3033 39.6477 61.564 39.336C61.7082 39.1635 61.8253 38.9673 61.9011 38.7514C61.9264 38.6795 61.9471 38.6054 61.9626 38.5293C61.9871 38.4098 62 38.2861 62 38.1595V2.6792C60.4159 5.31279 58.6008 7.80389 56.5395 10.085Z" fill="#7C002E"/>
<path d="M10.6869 26.5271H22.1252H28.6464V25.3413V23.0627H3.46979V24.0286V26.5271H10.6869Z" fill="#C8185A"/>
<path d="M47.7978 26.5271V23.0627H36.3929H32.0893V24.4342V26.5271H47.7978Z" fill="#C8185A"/>
<path d="M57.1583 23.0627H49.7345V26.5271H57.1583V23.0627Z" fill="#C8185A"/>
<path d="M57.1583 28.5168H28.6464V30.8986H57.1583V28.5168Z" fill="#C8185A"/>
<path d="M57.1584 33.3477H3.46979V34.8633H57.1584V33.3477Z" fill="#C8185A"/>
<path d="M3.49292 6.09337C3.49292 5.30439 4.13104 4.66479 4.91821 4.66479H14.642C15.4292 4.66479 16.0673 5.30439 16.0673 6.09337V15.8888C16.0673 16.6778 15.4292 17.3174 14.642 17.3174H4.91821C4.13104 17.3174 3.49292 16.6778 3.49292 15.8888V6.09337Z" fill="#7C002E"/>
</g>
<defs>
<clipPath id="clip0_10_335">
<rect width="62" height="40" rx="5" fill="white"/>
</clipPath>
</defs>
</svg>
