<svg width="41" height="40" viewBox="0 0 41 40" fill="none" xmlns="http://www.w3.org/2000/svg">
<path d="M36.404 11.5336H32.0295H31.3891H29.2156C29.2032 11.9007 29.189 12.1695 29.1809 12.3053C29.2707 12.3912 29.3272 12.5115 29.3272 12.6456C29.3272 12.9061 29.1159 13.1174 28.8553 13.1174C28.5946 13.1174 28.3834 12.9061 28.3834 12.6456C28.3834 12.5066 28.4446 12.383 28.5402 12.2966C28.5417 12.2716 28.5435 12.2417 28.5456 12.2027C28.5515 12.0975 28.5594 11.9431 28.5673 11.7473C28.5699 11.6812 28.5725 11.6088 28.5752 11.5336H28.0586H24.0897H23.4493H21.2758C21.2879 11.9132 21.3031 12.1808 21.3105 12.2964C21.4061 12.3828 21.4674 12.5065 21.4674 12.6456C21.4674 12.9061 21.2562 13.1174 20.9956 13.1174C20.735 13.1174 20.5237 12.9061 20.5237 12.6456C20.5237 12.5116 20.5801 12.3914 20.6697 12.3055C20.6614 12.1695 20.6469 11.9018 20.6354 11.5336H16.7938L14.4442 40H26.2259H34.4158L36.404 11.5336Z" fill="#93063A"/>
<path d="M28.102 0.640246C28.3399 0.640646 28.5531 0.682663 28.7524 0.757176C28.8429 0.791016 28.9313 0.829473 29.0163 0.877416C29.4908 1.14472 29.8962 1.64988 30.2229 2.33034C30.7142 3.34841 31.0184 4.73707 31.1914 6.1502C31.3655 7.56391 31.4128 9.00354 31.4127 10.1397C31.4127 10.6874 31.4017 11.1631 31.389 11.5335H32.0295C32.0422 11.16 32.0528 10.6852 32.0528 10.1397C32.052 8.38039 31.9442 5.90932 31.4243 3.84303C31.1628 2.80941 30.8009 1.87389 30.2708 1.17067C30.0053 0.819695 29.6952 0.526477 29.3319 0.32053C29.1639 0.224972 28.984 0.150025 28.7949 0.0961213C28.576 0.0336758 28.3444 -0.000238516 28.1019 0.000124962C27.5732 -0.000274863 27.0907 0.116438 26.6645 0.328672C26.6398 0.340958 26.617 0.356043 26.5927 0.368947C26.7945 0.492674 26.9791 0.643771 27.1485 0.816895C27.4356 0.70429 27.7487 0.640537 28.102 0.640246Z" fill="#161010"/>
<path d="M23.8327 12.7038C24.009 12.6909 24.1415 12.5375 24.1287 12.3612H24.1286C24.1286 12.3612 24.1278 12.3505 24.1264 12.3277C24.1257 12.3181 24.125 12.3062 24.1241 12.2926C24.041 12.2195 23.9332 12.1737 23.8139 12.1737C23.6852 12.1737 23.5689 12.2255 23.4838 12.309C23.4876 12.3716 23.4901 12.4067 23.4902 12.4079C23.503 12.5842 23.6564 12.7167 23.8327 12.7038Z" fill="#161010"/>
<path d="M24.7876 4.19147C25.0815 3.16588 25.4932 2.25977 26.0367 1.63146C26.2009 1.44114 26.3778 1.27932 26.5658 1.14116C26.4496 1.03765 26.3287 0.948595 26.2025 0.877535C26.135 0.839406 26.0659 0.805713 25.995 0.776489C25.5659 1.14 25.211 1.60711 24.9189 2.13917C24.271 3.32265 23.907 4.83093 23.6957 6.32923C23.4855 7.82712 23.4326 9.31465 23.4325 10.4441C23.4325 10.863 23.4399 11.2314 23.4493 11.5336H24.0898C24.0802 11.2337 24.0727 10.8648 24.0727 10.4441C24.0717 8.75489 24.1967 6.2429 24.7876 4.19147Z" fill="#161010"/>
<path d="M31.3499 12.3624C31.3377 12.5388 31.4707 12.6916 31.647 12.7039C31.8233 12.7161 31.9762 12.5831 31.9885 12.4067C31.9885 12.4057 31.9911 12.3688 31.995 12.3018C31.9107 12.223 31.7982 12.1737 31.6736 12.1737C31.5497 12.1737 31.438 12.2224 31.3538 12.3005C31.3533 12.3076 31.3527 12.3166 31.3524 12.3225C31.3508 12.3495 31.3499 12.3624 31.3499 12.3624Z" fill="#161010"/>
<path d="M36.404 11.5336L34.4159 40L37.2174 38.3959L40.0188 40L36.404 11.5336Z" fill="#D23746"/>
<path d="M34.4159 39.9999H40.0188L37.2174 38.3959L34.4159 39.9999Z" fill="#93063A"/>
<path d="M37.0894 37.918C37.0917 37.9887 37.1507 38.0442 37.2214 38.042C37.2921 38.0397 37.3476 37.9806 37.3453 37.91L36.5848 13.7738C36.5825 13.7031 36.5234 13.6476 36.4527 13.6498C36.382 13.6521 36.3266 13.7112 36.3288 13.7818L37.0894 37.918Z" fill="#8E2534"/>
<path d="M28.8331 12.7038C28.6568 12.6916 28.5237 12.5387 28.536 12.3624C28.536 12.3624 28.5369 12.3494 28.5386 12.3225C28.539 12.3155 28.5396 12.3053 28.5402 12.2966C28.4446 12.383 28.3834 12.5066 28.3834 12.6456C28.3834 12.9061 28.5946 13.1174 28.8553 13.1174C29.1159 13.1174 29.3272 12.9061 29.3272 12.6456C29.3272 12.5115 29.2707 12.3912 29.1809 12.3053C29.1771 12.3703 29.1746 12.4057 29.1746 12.4067C29.1623 12.583 29.0094 12.716 28.8331 12.7038Z" fill="#B56868"/>
<path d="M20.6763 12.4079C20.6892 12.5842 20.8426 12.7167 21.0189 12.7038C21.1952 12.6909 21.3277 12.5375 21.3148 12.3612H21.3148C21.3148 12.3612 21.314 12.3505 21.3125 12.3277C21.3119 12.3192 21.3112 12.3082 21.3105 12.2964C21.3032 12.1808 21.2879 11.9132 21.2758 11.5336C21.2663 11.2337 21.2587 10.8646 21.2587 10.4439C21.2578 8.75468 21.3828 6.24276 21.9738 4.19133C22.2677 3.16578 22.6793 2.25967 23.2227 1.63136C23.4944 1.31655 23.7967 1.07037 24.1356 0.901899C24.475 0.733681 24.852 0.64063 25.2882 0.64023C25.5482 0.640703 25.7802 0.687773 25.995 0.776352C26.0659 0.805612 26.135 0.839308 26.2025 0.8774C26.3287 0.94846 26.4496 1.03751 26.5658 1.14103C26.8866 1.42687 27.1693 1.8308 27.4091 2.33029C27.9004 3.34836 28.2046 4.73702 28.3776 6.15015C28.384 6.20234 28.389 6.25469 28.3952 6.30692C28.5539 7.66985 28.599 9.04543 28.5989 10.1396C28.5989 10.6873 28.588 11.163 28.5753 11.5335C28.5727 11.6087 28.57 11.6811 28.5674 11.7472C28.5595 11.943 28.5517 12.0974 28.5458 12.2026C28.5436 12.2417 28.5418 12.2715 28.5403 12.2965C28.5397 12.3052 28.5391 12.3154 28.5387 12.3224C28.537 12.3493 28.5361 12.3623 28.5361 12.3623C28.5238 12.5386 28.6569 12.6915 28.8332 12.7037C29.0096 12.7159 29.1624 12.5829 29.1747 12.4066C29.1748 12.4056 29.1772 12.3702 29.181 12.3052C29.1891 12.1694 29.2033 11.9005 29.2157 11.5334C29.2284 11.1599 29.239 10.6851 29.2391 10.1396C29.2383 8.3803 29.1304 5.90924 28.6106 3.84294C28.596 3.78548 28.58 3.7295 28.5648 3.67265C28.307 2.70722 27.9576 1.83469 27.457 1.17054C27.361 1.04355 27.2568 0.927268 27.1486 0.816771C26.9791 0.643647 26.7945 0.49255 26.5928 0.368822C26.5675 0.353302 26.544 0.335054 26.5182 0.320406C26.1555 0.114169 25.74 -0.00061543 25.2882 2.48188e-06C24.7594 -0.000397343 24.277 0.116313 23.8508 0.328548C23.1031 0.700749 22.5372 1.35156 22.1051 2.13892C21.4572 3.32237 21.0932 4.83065 20.8818 6.32891C20.6716 7.8268 20.6187 9.31433 20.6187 10.4438C20.6187 10.8627 20.6261 11.2311 20.6355 11.5334C20.647 11.9016 20.6615 12.1694 20.6698 12.3053C20.6736 12.3702 20.6763 12.4067 20.6763 12.4079Z" fill="#3F3132"/>
<path d="M16.5882 18.2123H13.2837H12.7999H11.1582C11.1488 18.4896 11.138 18.6927 11.132 18.7952C11.1997 18.8601 11.2424 18.951 11.2424 19.0523C11.2424 19.2491 11.0828 19.4087 10.886 19.4087C10.6891 19.4087 10.5295 19.2491 10.5295 19.0523C10.5295 18.9473 10.5757 18.8539 10.6479 18.7887C10.6491 18.7698 10.6504 18.7472 10.6521 18.7177C10.6565 18.6383 10.6625 18.5216 10.6684 18.3737C10.6704 18.3238 10.6724 18.2691 10.6744 18.2123H10.2841H7.2861H6.80231H5.16051C5.16965 18.4991 5.18116 18.7012 5.1867 18.7885C5.25897 18.8537 5.30526 18.9472 5.30526 19.0523C5.30526 19.2491 5.14571 19.4087 4.94882 19.4087C4.75198 19.4087 4.5924 19.2491 4.5924 19.0523C4.5924 18.9511 4.63496 18.8603 4.70267 18.7954C4.69638 18.6927 4.68545 18.4904 4.67675 18.2123H1.77488L0 39.7155H8.89973H15.0863L16.5882 18.2123Z" fill="#93063A"/>
<path d="M10.3169 9.98366C10.4966 9.98397 10.6577 10.0157 10.8082 10.072C10.8765 10.0976 10.9433 10.1266 11.0076 10.1628C11.366 10.3647 11.6722 10.7463 11.919 11.2603C12.2901 12.0294 12.5199 13.0784 12.6506 14.1458C12.7821 15.2137 12.8178 16.3012 12.8178 17.1594C12.8178 17.5732 12.8095 17.9325 12.7999 18.2123H13.2837C13.2933 17.9302 13.3013 17.5715 13.3013 17.1594C13.3007 15.8305 13.2192 13.9639 12.8265 12.403C12.629 11.6222 12.3556 10.9155 11.9552 10.3843C11.7547 10.1192 11.5204 9.89772 11.246 9.74216C11.119 9.66997 10.9832 9.61336 10.8403 9.57264C10.6749 9.52547 10.5 9.49985 10.3168 9.50012C9.91743 9.49982 9.553 9.58799 9.23107 9.74831C9.2124 9.75759 9.19515 9.76898 9.17676 9.77873C9.3292 9.87219 9.46865 9.98633 9.59665 10.1171C9.81351 10.032 10.05 9.98388 10.3169 9.98366Z" fill="#161010"/>
<path d="M7.09195 19.0962C7.22515 19.0865 7.32523 18.9706 7.31553 18.8374H7.31551C7.31551 18.8374 7.3149 18.8294 7.31378 18.8122C7.31328 18.8049 7.31273 18.7959 7.31207 18.7856C7.24931 18.7304 7.1679 18.6958 7.07773 18.6958C6.98053 18.6958 6.89265 18.7349 6.82837 18.798C6.83128 18.8453 6.83315 18.8718 6.83323 18.8727C6.84292 19.0059 6.95879 19.1059 7.09195 19.0962Z" fill="#161010"/>
<path d="M7.81322 12.6662C8.03521 11.8915 8.34621 11.207 8.75671 10.7324C8.88076 10.5886 9.01442 10.4664 9.15643 10.362C9.06862 10.2838 8.9773 10.2166 8.882 10.1629C8.83098 10.1341 8.77879 10.1086 8.72522 10.0865C8.40112 10.3611 8.13298 10.714 7.91239 11.1159C7.42295 12.0099 7.14797 13.1492 6.98834 14.281C6.82958 15.4125 6.78961 16.5362 6.78955 17.3893C6.78955 17.7058 6.79512 17.9841 6.80226 18.2124H7.28605C7.27883 17.9858 7.27312 17.7072 7.27312 17.3893C7.27238 16.1133 7.36683 14.2158 7.81322 12.6662Z" fill="#161010"/>
<path d="M12.7704 18.8384C12.7611 18.9716 12.8616 19.087 12.9948 19.0963C13.128 19.1055 13.2435 19.005 13.2527 18.8718C13.2528 18.8711 13.2547 18.8432 13.2577 18.7926C13.194 18.733 13.109 18.6958 13.0149 18.6958C12.9213 18.6958 12.8369 18.7326 12.7733 18.7916C12.7729 18.797 12.7725 18.8038 12.7723 18.8082C12.7711 18.8286 12.7704 18.8384 12.7704 18.8384Z" fill="#161010"/>
<path d="M16.5881 18.2123L15.0863 39.7155L17.2025 38.5038L19.3187 39.7155L16.5881 18.2123Z" fill="#D23746"/>
<path d="M15.0863 39.7155H19.3187L17.2025 38.5038L15.0863 39.7155Z" fill="#93063A"/>
<path d="M17.106 38.1429C17.1077 38.1963 17.1523 38.2382 17.2057 38.2365C17.2591 38.2348 17.301 38.1902 17.2993 38.1368L16.7248 19.9046C16.7231 19.8512 16.6785 19.8093 16.625 19.811C16.5716 19.8127 16.5297 19.8573 16.5314 19.9107L17.106 38.1429Z" fill="#8E2534"/>
<path d="M10.8691 19.0964C10.7359 19.0872 10.6354 18.9717 10.6447 18.8385C10.6447 18.8385 10.6453 18.8287 10.6466 18.8083C10.6469 18.8031 10.6474 18.7954 10.6478 18.7888C10.5756 18.8541 10.5294 18.9474 10.5294 19.0524C10.5294 19.2492 10.689 19.4088 10.8859 19.4088C11.0827 19.4088 11.2423 19.2492 11.2423 19.0524C11.2423 18.9511 11.1996 18.8603 11.1318 18.7954C11.1289 18.8445 11.1271 18.8712 11.1271 18.872C11.1178 19.0051 11.0023 19.1056 10.8691 19.0964Z" fill="#B56868"/>
<path d="M4.70764 18.8728C4.71738 19.006 4.83322 19.1061 4.96642 19.0963C5.09958 19.0866 5.19969 18.9707 5.18994 18.8375H5.18991C5.18991 18.8375 5.18931 18.8295 5.18818 18.8122C5.18774 18.8058 5.18722 18.7975 5.18667 18.7886C5.18113 18.7012 5.16962 18.4991 5.16048 18.2123C5.15326 17.9858 5.14755 17.707 5.14755 17.3892C5.14683 16.1132 5.24128 14.2157 5.6877 12.6661C5.90972 11.8914 6.22066 11.2069 6.63117 10.7323C6.83635 10.4945 7.06474 10.3085 7.32074 10.1813C7.57708 10.0542 7.86191 9.98392 8.19137 9.98362C8.38777 9.98398 8.56302 10.0195 8.72529 10.0864C8.77886 10.1086 8.83105 10.134 8.88207 10.1628C8.97737 10.2165 9.06869 10.2837 9.1565 10.3619C9.39883 10.5778 9.61233 10.883 9.79352 11.2603C10.1646 12.0293 10.3944 13.0783 10.5251 14.1458C10.5299 14.1852 10.5337 14.2247 10.5384 14.2642C10.6583 15.2937 10.6923 16.3328 10.6923 17.1594C10.6923 17.5731 10.684 17.9324 10.6744 18.2123C10.6724 18.2691 10.6705 18.3238 10.6685 18.3737C10.6625 18.5216 10.6566 18.6383 10.6521 18.7177C10.6505 18.7472 10.6491 18.7697 10.648 18.7887C10.6476 18.7952 10.6471 18.8029 10.6468 18.8082C10.6455 18.8285 10.6448 18.8383 10.6448 18.8383C10.6356 18.9715 10.7361 19.087 10.8693 19.0963C11.0025 19.1055 11.1179 19.005 11.1272 18.8718C11.1273 18.871 11.1291 18.8443 11.132 18.7952C11.1381 18.6926 11.1488 18.4895 11.1582 18.2122C11.1678 17.9301 11.1758 17.5714 11.1758 17.1593C11.1753 15.8304 11.0938 13.9638 10.7011 12.4029C10.6901 12.3595 10.678 12.3172 10.6665 12.2743C10.4718 11.545 10.2078 10.8859 9.82968 10.3842C9.75714 10.2883 9.67848 10.2004 9.59674 10.117C9.46871 9.9862 9.32925 9.87207 9.17684 9.7786C9.15779 9.76688 9.14 9.7531 9.1205 9.74203C8.84657 9.58624 8.53271 9.49954 8.1914 9.5C7.79196 9.4997 7.42752 9.58786 7.10562 9.74818C6.54075 10.0293 6.11334 10.521 5.7869 11.1157C5.29752 12.0097 5.02251 13.149 4.86285 14.2808C4.70409 15.4123 4.66412 16.5359 4.66406 17.3891C4.66406 17.7056 4.66966 17.9839 4.67677 18.2122C4.68548 18.4904 4.69641 18.6926 4.70269 18.7953C4.7056 18.8443 4.70758 18.8719 4.70764 18.8728Z" fill="#3F3132"/>
</svg>
