<svg width="63" height="40" viewBox="0 0 63 40" fill="none" xmlns="http://www.w3.org/2000/svg">
<path d="M33.5542 0H2.52481C1.97629 0 1.53149 0.444794 1.53149 0.993321V31.0736H34.5473V0.993321C34.5475 0.444794 34.1027 0 33.5542 0Z" fill="#7C002E"/>
<path d="M34.1959 0.260132L32.1321 31.0929H34.5473V1.01259C34.5475 0.710104 34.4092 0.442425 34.1959 0.260132Z" fill="#93063A"/>
<path d="M22.0911 31.0738C21.9237 26.7964 18.4051 23.3794 14.0865 23.3794C9.76787 23.3794 6.24926 26.7962 6.08179 31.0738H22.0911Z" fill="#93063A"/>
<path d="M9.49384 27.3901H0.934753C0.420568 27.3901 0 27.8107 0 28.3249V30.1389C0 30.6531 0.420568 31.0736 0.934753 31.0736H9.49384C10.008 31.0736 10.4286 30.6531 10.4286 30.1389V28.3249C10.4286 27.8109 10.008 27.3901 9.49384 27.3901Z" fill="#93063A"/>
<path d="M18.3889 35.6962C20.7657 33.3193 20.7658 29.4656 18.3889 27.0887C16.012 24.7118 12.1582 24.7118 9.78135 27.0887C7.40445 29.4656 7.40446 33.3193 9.78135 35.6962C12.1582 38.0731 16.012 38.0731 18.3889 35.6962Z" fill="#142F42"/>
<path d="M16.7752 34.3567C18.4139 32.8734 18.5399 30.3426 17.0566 28.7039C15.5733 27.0652 13.0424 26.9393 11.4038 28.4225C9.76511 29.9058 9.63915 32.4367 11.1224 34.0754C12.6057 35.714 15.1366 35.84 16.7752 34.3567Z" fill="#4F6C80"/>
<path d="M15.7852 31.3921C15.7852 32.3301 15.0247 33.0908 14.0864 33.0908C13.1484 33.0908 12.3877 32.3304 12.3877 31.3921C12.3877 30.454 13.1481 29.6934 14.0864 29.6934C15.0247 29.6936 15.7852 30.454 15.7852 31.3921Z" fill="#6990AB"/>
<path d="M23.1133 18.7016C25.9162 15.8987 25.9162 11.3544 23.1133 8.5516C20.3105 5.74876 15.7662 5.74876 12.9634 8.5516C10.1605 11.3544 10.1605 15.8987 12.9634 18.7016C15.7662 21.5044 20.3105 21.5044 23.1133 18.7016Z" fill="#93063A"/>
<path d="M59.6001 18.5685L49.8621 5.58641C48.7495 4.10336 47.0037 3.23047 45.1497 3.23047H34.5473V31.0736H60.7785V22.1034C60.7785 20.8287 60.365 19.5884 59.6001 18.5685Z" fill="#7C002E"/>
<path d="M59.3134 31.0738C59.1459 26.7964 55.6273 23.3794 51.3087 23.3794C46.9901 23.3794 43.4715 26.7962 43.304 31.0738H59.3134Z" fill="#93063A"/>
<path d="M51.3086 21.672C51.311 21.672 51.3136 21.672 51.3162 21.672C51.7156 21.6725 52.0427 21.3563 52.0427 20.9569V12.9781L36.3293 12.4851V28.2301C36.3293 28.6253 36.6497 28.9454 37.0446 28.9454H41.3634C41.6746 28.9454 41.9491 28.7438 42.0432 28.4472C43.2905 24.5184 46.967 21.672 51.3086 21.672Z" fill="#93063A"/>
<path d="M39.544 16.3127H37.8954C37.682 16.3127 37.5075 16.1382 37.5075 15.9249C37.5075 15.7115 37.682 15.537 37.8954 15.537H39.544C39.7574 15.537 39.9319 15.7115 39.9319 15.9249C39.9319 16.1382 39.7574 16.3127 39.544 16.3127Z" fill="#204966"/>
<path d="M51.9038 12.344L48.9005 7.49637C47.9872 6.02227 46.5542 5.15479 45.0324 5.15479H37.0166C36.637 5.15479 36.3291 5.5276 36.3291 5.98745V12.8438C36.3291 13.3037 36.637 13.6765 37.0166 13.6765H51.3538C51.9202 13.676 52.2437 12.8927 51.9038 12.344Z" fill="#ABD7F7"/>
<mask id="mask0_98_1874" style="mask-type:luminance" maskUnits="userSpaceOnUse" x="36" y="5" width="17" height="9">
<path d="M51.9038 12.344L48.9005 7.49637C47.9872 6.02227 46.5542 5.15479 45.0324 5.15479H37.0166C36.637 5.15479 36.3291 5.5276 36.3291 5.98745V12.8438C36.3291 13.3037 36.637 13.6765 37.0166 13.6765H51.3538C51.9202 13.676 52.2437 12.8927 51.9038 12.344Z" fill="white"/>
</mask>
<g mask="url(#mask0_98_1874)">
<path d="M46.5302 14.6873C46.25 14.6873 46.0207 14.458 46.0207 14.1779V10.6042C46.0207 10.3241 46.25 10.0947 46.5302 10.0947C46.8103 10.0947 47.0396 10.3241 47.0396 10.6042V14.1779C47.0396 14.4582 46.8105 14.6873 46.5302 14.6873Z" stroke="#204966" stroke-width="1.7967" stroke-miterlimit="10"/>
</g>
<mask id="mask1_98_1874" style="mask-type:luminance" maskUnits="userSpaceOnUse" x="36" y="5" width="17" height="9">
<path d="M51.9038 12.344L48.9005 7.49637C47.9872 6.02227 46.5542 5.15479 45.0324 5.15479H37.0166C36.637 5.15479 36.3291 5.5276 36.3291 5.98745V12.8438C36.3291 13.3037 36.637 13.6765 37.0166 13.6765H51.3538C51.9202 13.676 52.2437 12.8927 51.9038 12.344Z" fill="white"/>
</mask>
<g mask="url(#mask1_98_1874)">
<path d="M36.4008 17.1523C35.4696 17.1523 34.7077 16.3904 34.7077 15.4592V9.52488C34.7077 8.59366 35.4696 7.83179 36.4008 7.83179C37.332 7.83179 38.0939 8.59366 38.0939 9.52488V15.4592C38.0939 16.3904 37.332 17.1523 36.4008 17.1523Z" fill="#204966"/>
</g>
<path d="M60.8023 27.3901H52.2432C51.729 27.3901 51.3085 27.8107 51.3085 28.3249V30.1389C51.3085 30.6531 51.729 31.0736 52.2432 31.0736H60.8023C61.3165 31.0736 61.7371 30.6531 61.7371 30.1389V28.3249C61.7371 27.8109 61.3165 27.3901 60.8023 27.3901Z" fill="#204966"/>
<path d="M57.2272 32.779C57.991 29.5056 55.9565 26.2328 52.6831 25.4691C49.4097 24.7054 46.1369 26.7399 45.3732 30.0133C44.6095 33.2867 46.644 36.5594 49.9174 37.3232C53.1908 38.0869 56.4635 36.0524 57.2272 32.779Z" fill="#142F42"/>
<path d="M55.2035 32.3121C55.7077 30.1602 54.3719 28.007 52.22 27.5029C50.0681 26.9987 47.915 28.3345 47.4108 30.4864C46.9067 32.6382 48.2424 34.7914 50.3943 35.2955C52.5462 35.7997 54.6994 34.464 55.2035 32.3121Z" fill="#4F6C80"/>
<path d="M53.0072 31.3922C53.0072 32.3303 52.2467 33.091 51.3084 33.091C50.3704 33.091 49.6097 32.3305 49.6097 31.3922C49.6097 30.4542 50.3701 29.6935 51.3084 29.6935C52.2467 29.6937 53.0072 30.4542 53.0072 31.3922Z" fill="#6990AB"/>
<path d="M60.7785 26.0794C60.0658 26.0794 59.4825 25.4963 59.4825 24.7834V23.2625C59.4825 22.5498 60.0656 21.9664 60.7785 21.9664C61.4912 21.9664 62.0746 22.5495 62.0746 23.2625V24.7834C62.0746 25.4961 61.4912 26.0794 60.7785 26.0794Z" fill="#ABD7F7"/>
<path d="M49.5699 8.73554C49.1331 8.98769 48.5695 8.83669 48.3174 8.39989L47.2373 6.52897C46.9851 6.09217 47.1361 5.52859 47.5729 5.27644C48.0097 5.02428 48.5733 5.17529 48.8254 5.61209L49.9056 7.48301C50.1577 7.91981 50.0067 8.48362 49.5699 8.73554Z" fill="#204966"/>
<path d="M57.9601 25.4777C57.7202 25.4777 57.524 25.2816 57.524 25.0417V23.004C57.524 22.764 57.7202 22.5679 57.9601 22.5679C58.2 22.5679 58.3962 22.764 58.3962 23.004V25.0417C58.3962 25.2816 58.1998 25.4777 57.9601 25.4777Z" fill="#93063A"/>
</svg>
